<svg width="440" height="616" viewBox="0 0 440 616" fill="none" xmlns="http://www.w3.org/2000/svg">
<g filter="url(#filter0_d_1_2528)">
<rect x="16" y="-63" width="408" height="659" rx="32" fill="#FFFDF1"/>
<rect x="40" y="-6.5" width="28" height="47.6667" fill="#5784F1" fill-opacity="0.2"/>
<rect x="40" y="-6.5" width="28" height="47.6667" stroke="#5784F1" stroke-width="1.5"/>
<path d="M55.9756 11.3138V23.3334H53.8008V13.4222H53.7344L50.9287 15.2152V13.2396L53.9004 11.3138H55.9756Z" fill="#364F8E"/>
<rect x="68" y="-6.5" width="332" height="47.6667" stroke="#5784F1" stroke-width="1.5"/>
<path d="M160.223 9.8031V24.8275H158.396V16.726H155.574V15.2318H158.396V9.8031H160.223ZM148.319 21.3744V11.098H155.342V12.6088H150.179V15.2982H154.744V16.7592H150.179V19.847C152.461 19.8387 154.171 19.7557 156.105 19.4486L156.288 20.9427C154.105 21.2748 152.179 21.3578 149.498 21.3744H148.319ZM174.799 9.8031V24.8109H172.956V9.8031H174.799ZM162.48 20.5443C164.871 19.4901 166.249 16.9667 166.249 14.5677V13.7875H162.945V12.3099H166.249V10.1185H168.075V12.3099H171.312V13.7875H168.092V14.5677C168.083 16.8505 169.486 19.2992 171.91 20.3119L170.897 21.723C169.179 20.9926 167.884 19.4984 167.195 17.6888C166.523 19.6063 165.228 21.2084 163.477 21.972L162.48 20.5443ZM184.345 12.1937V13.6713H176.99V12.1937H179.779V10.2347H181.605V12.1937H184.345ZM177.422 17.9545C177.405 15.9125 178.792 14.4598 180.692 14.4681C182.602 14.4598 183.963 15.9125 183.963 17.9545C183.963 20.038 182.602 21.4906 180.692 21.4906C178.792 21.4906 177.405 20.038 177.422 17.9545ZM179.049 17.9545C179.041 19.1664 179.721 19.9218 180.692 19.9135C181.655 19.9218 182.336 19.1664 182.336 17.9545C182.336 16.7758 181.655 15.9955 180.692 15.9955C179.721 15.9955 179.041 16.7758 179.049 17.9545ZM184.976 24.1302V10.1185H186.702V15.9789H188.163V9.8031H189.923V24.8109H188.163V17.473H186.702V24.1302H184.976ZM197.261 13.4056C197.252 16.1947 198.589 18.934 200.979 19.9799L199.867 21.4574C198.174 20.6273 196.979 19.0336 196.339 17.0663C195.684 19.1415 194.455 20.868 192.729 21.7396L191.566 20.2455C194.015 19.1 195.376 16.2113 195.385 13.4056V11.015H197.261V13.4056ZM199.319 16.1449V14.6508H202.474V9.8031H204.3V24.8275H202.474V16.1449H199.319ZM224.122 18.1703V19.6644H218.162V24.7943H216.336V19.6644H210.442V18.1703H224.122ZM211.156 15.7133C214.103 15.3397 216.079 13.7543 216.211 12.1107H211.704V10.6498H222.86V12.1107H218.353C218.478 13.7543 220.437 15.3397 223.408 15.7133L222.744 17.1576C220.188 16.7924 218.195 15.6219 217.282 14.0033C216.361 15.6219 214.385 16.7924 211.854 17.1576L211.156 15.7133ZM233.519 10.9154V11.8119C233.502 12.8329 233.502 14.327 233.153 16.2279L231.327 16.0619C231.626 14.5179 231.684 13.3641 231.701 12.4427H225.865V10.9154H233.519ZM224.969 17.4232C225.857 17.4149 226.853 17.4066 227.907 17.39V14.3353H229.733V17.3319C231.286 17.2655 232.879 17.1493 234.332 16.9418L234.432 18.2699C231.311 18.8344 227.766 18.8925 225.135 18.9008L224.969 17.4232ZM227.21 24.5121V20.0463H229.069V23.0179H237.586V24.5121H227.21ZM235.212 21.0424V9.8031H237.104V14.4847H239.047V16.0287H237.104V21.0424H235.212ZM245.422 11.9447C245.414 13.9203 246.659 15.7797 249.041 16.5267L248.128 17.9877C246.401 17.4149 245.165 16.2694 244.484 14.8002C243.812 16.3773 242.55 17.6307 240.773 18.2367L239.844 16.7924C242.268 15.9706 243.521 13.9784 243.513 11.9447V10.517H245.422V11.9447ZM242.085 20.9427V19.4652H252.328V24.8109H250.469V20.9427H242.085ZM250.469 18.7845V9.8031H252.328V18.7845H250.469ZM270.391 9.8031V13.14H272.482V14.6674H270.391V17.8217H268.548V9.8031H270.391ZM259.185 17.4232V10.7328H265.858V12.2269H261.011V15.9125C263.833 15.9042 265.402 15.8212 267.187 15.431L267.386 16.9252C265.418 17.3319 263.675 17.4149 260.396 17.4232H259.185ZM260.662 24.5951V18.5687H262.505V20.1127H268.548V18.5687H270.391V24.5951H260.662ZM262.505 23.101H268.548V21.5736H262.505V23.101ZM285.083 9.8031V14.2025H287.175V15.7299H285.083V20.7767H283.24V9.8031H285.083ZM273.412 14.5844C273.404 12.368 275.18 10.8075 277.463 10.7992C279.746 10.8075 281.497 12.368 281.514 14.5844C281.497 16.7675 279.746 18.3529 277.463 18.3529C275.18 18.3529 273.404 16.7675 273.412 14.5844ZM275.222 14.5844C275.213 15.8793 276.209 16.7343 277.463 16.726C278.733 16.7343 279.696 15.8793 279.704 14.5844C279.696 13.2562 278.733 12.4095 277.463 12.4095C276.209 12.4095 275.213 13.2562 275.222 14.5844ZM275.471 24.5121V19.6312H277.313V23.0179H285.681V24.5121H275.471ZM304.474 9.8031V17.8549H302.614V9.8031H304.474ZM292.238 13.9867C292.238 11.9032 293.965 10.4589 296.289 10.4672C298.605 10.4589 300.332 11.9032 300.323 13.9867C300.332 16.037 298.605 17.4813 296.289 17.473C293.965 17.4813 292.238 16.037 292.238 13.9867ZM294.048 13.9867C294.04 15.1903 294.978 15.954 296.289 15.9623C297.576 15.954 298.514 15.1903 298.514 13.9867C298.514 12.7831 297.576 12.0028 296.289 12.0111C294.978 12.0028 294.04 12.7831 294.048 13.9867ZM294.546 24.6283V18.5521H296.372V20.0961H302.631V18.5521H304.474V24.6283H294.546ZM296.372 23.1342H302.631V21.5404H296.372V23.1342ZM313.837 10.6996V15.2152H309.105V17.058C311.521 17.058 312.891 16.9916 314.484 16.6927L314.667 18.1869C312.874 18.494 311.322 18.5355 308.375 18.5355H307.279V13.8373H311.994V12.1605H307.246V10.6996H313.837ZM308.973 21.2416V19.764H319.232V24.8109H317.39V21.2416H308.973ZM314.733 16.5765V15.099H317.39V13.4222H314.733V11.9447H317.39V9.8197H319.232V19.0502H317.39V16.5765H314.733Z" fill="#BDBCB8"/>
<rect x="40" y="41.1666" width="28" height="47.6667" fill="#5784F1" fill-opacity="0.2"/>
<rect x="40" y="41.1666" width="28" height="47.6667" stroke="#5784F1" stroke-width="1.5"/>
<path d="M49.8745 71V69.4395L54.1245 65.3389C55.3364 64.127 55.9673 63.4131 55.9673 62.4004C55.9673 61.2798 55.0791 60.5742 53.9087 60.5742C52.6719 60.5742 51.875 61.3462 51.8833 62.5664H49.8247C49.8164 60.292 51.5264 58.8145 53.9253 58.8145C56.3823 58.8145 58.0342 60.2837 58.0425 62.3008C58.0342 63.6538 57.3867 64.7495 55.021 66.9824L52.8794 69.1074V69.1904H58.2251V71H49.8745Z" fill="#364F8E"/>
<rect x="68" y="41.1666" width="332" height="47.6667" stroke="#5784F1" stroke-width="1.5"/>
<path d="M160.223 57.4697V72.4941H158.396V64.3926H155.574V62.8984H158.396V57.4697H160.223ZM148.319 69.041V58.7646H155.342V60.2754H150.179V62.9648H154.744V64.4258H150.179V67.5137C152.461 67.5054 154.171 67.4224 156.105 67.1152L156.288 68.6094C154.105 68.9414 152.179 69.0244 149.498 69.041H148.319ZM174.799 57.4697V72.4775H172.956V57.4697H174.799ZM162.48 68.2109C164.871 67.1567 166.249 64.6333 166.249 62.2344V61.4541H162.945V59.9766H166.249V57.7852H168.075V59.9766H171.312V61.4541H168.092V62.2344C168.083 64.5171 169.486 66.9658 171.91 67.9785L170.897 69.3896C169.179 68.6592 167.884 67.165 167.195 65.3555C166.523 67.2729 165.228 68.875 163.477 69.6387L162.48 68.2109ZM184.345 59.8604V61.3379H176.99V59.8604H179.779V57.9014H181.605V59.8604H184.345ZM177.422 65.6211C177.405 63.5791 178.792 62.1265 180.692 62.1348C182.602 62.1265 183.963 63.5791 183.963 65.6211C183.963 67.7046 182.602 69.1572 180.692 69.1572C178.792 69.1572 177.405 67.7046 177.422 65.6211ZM179.049 65.6211C179.041 66.833 179.721 67.5884 180.692 67.5801C181.655 67.5884 182.336 66.833 182.336 65.6211C182.336 64.4424 181.655 63.6621 180.692 63.6621C179.721 63.6621 179.041 64.4424 179.049 65.6211ZM184.976 71.7969V57.7852H186.702V63.6455H188.163V57.4697H189.923V72.4775H188.163V65.1396H186.702V71.7969H184.976ZM197.261 61.0723C197.252 63.8613 198.589 66.6006 200.979 67.6465L199.867 69.124C198.174 68.2939 196.979 66.7002 196.339 64.7329C195.684 66.8081 194.455 68.5347 192.729 69.4062L191.566 67.9121C194.015 66.7666 195.376 63.8779 195.385 61.0723V58.6816H197.261V61.0723ZM199.319 63.8115V62.3174H202.474V57.4697H204.3V72.4941H202.474V63.8115H199.319ZM224.122 65.8369V67.3311H218.162V72.4609H216.336V67.3311H210.442V65.8369H224.122ZM211.156 63.3799C214.103 63.0063 216.079 61.4209 216.211 59.7773H211.704V58.3164H222.86V59.7773H218.353C218.478 61.4209 220.437 63.0063 223.408 63.3799L222.744 64.8242C220.188 64.459 218.195 63.2886 217.282 61.6699C216.361 63.2886 214.385 64.459 211.854 64.8242L211.156 63.3799ZM233.519 58.582V59.4785C233.502 60.4995 233.502 61.9937 233.153 63.8945L231.327 63.7285C231.626 62.1846 231.684 61.0308 231.701 60.1094H225.865V58.582H233.519ZM224.969 65.0898C225.857 65.0815 226.853 65.0732 227.907 65.0566V62.002H229.733V64.9985C231.286 64.9321 232.879 64.8159 234.332 64.6084L234.432 65.9365C231.311 66.501 227.766 66.5591 225.135 66.5674L224.969 65.0898ZM227.21 72.1787V67.7129H229.069V70.6846H237.586V72.1787H227.21ZM235.212 68.709V57.4697H237.104V62.1514H239.047V63.6953H237.104V68.709H235.212ZM245.422 59.6113C245.414 61.5869 246.659 63.4463 249.041 64.1934L248.128 65.6543C246.401 65.0815 245.165 63.936 244.484 62.4668C243.812 64.0439 242.55 65.2974 240.773 65.9033L239.844 64.459C242.268 63.6372 243.521 61.645 243.513 59.6113V58.1836H245.422V59.6113ZM242.085 68.6094V67.1318H252.328V72.4775H250.469V68.6094H242.085ZM250.469 66.4512V57.4697H252.328V66.4512H250.469ZM270.391 57.4697V60.8066H272.482V62.334H270.391V65.4883H268.548V57.4697H270.391ZM259.185 65.0898V58.3994H265.858V59.8936H261.011V63.5791C263.833 63.5708 265.402 63.4878 267.187 63.0977L267.386 64.5918C265.418 64.9985 263.675 65.0815 260.396 65.0898H259.185ZM260.662 72.2617V66.2354H262.505V67.7793H268.548V66.2354H270.391V72.2617H260.662ZM262.505 70.7676H268.548V69.2402H262.505V70.7676ZM285.083 57.4697V61.8691H287.175V63.3965H285.083V68.4434H283.24V57.4697H285.083ZM273.412 62.251C273.404 60.0347 275.18 58.4741 277.463 58.4658C279.746 58.4741 281.497 60.0347 281.514 62.251C281.497 64.4341 279.746 66.0195 277.463 66.0195C275.18 66.0195 273.404 64.4341 273.412 62.251ZM275.222 62.251C275.213 63.5459 276.209 64.4009 277.463 64.3926C278.733 64.4009 279.696 63.5459 279.704 62.251C279.696 60.9229 278.733 60.0762 277.463 60.0762C276.209 60.0762 275.213 60.9229 275.222 62.251ZM275.471 72.1787V67.2979H277.313V70.6846H285.681V72.1787H275.471ZM304.474 57.4697V65.5215H302.614V57.4697H304.474ZM292.238 61.6533C292.238 59.5698 293.965 58.1255 296.289 58.1338C298.605 58.1255 300.332 59.5698 300.323 61.6533C300.332 63.7036 298.605 65.1479 296.289 65.1396C293.965 65.1479 292.238 63.7036 292.238 61.6533ZM294.048 61.6533C294.04 62.8569 294.978 63.6206 296.289 63.6289C297.576 63.6206 298.514 62.8569 298.514 61.6533C298.514 60.4497 297.576 59.6694 296.289 59.6777C294.978 59.6694 294.04 60.4497 294.048 61.6533ZM294.546 72.2949V66.2188H296.372V67.7627H302.631V66.2188H304.474V72.2949H294.546ZM296.372 70.8008H302.631V69.207H296.372V70.8008ZM313.837 58.3662V62.8818H309.105V64.7246C311.521 64.7246 312.891 64.6582 314.484 64.3594L314.667 65.8535C312.874 66.1606 311.322 66.2021 308.375 66.2021H307.279V61.5039H311.994V59.8271H307.246V58.3662H313.837ZM308.973 68.9082V67.4307H319.232V72.4775H317.39V68.9082H308.973ZM314.733 64.2432V62.7656H317.39V61.0889H314.733V59.6113H317.39V57.4863H319.232V66.7168H317.39V64.2432H314.733Z" fill="#BDBCB8"/>
<rect x="40" y="88.8334" width="28" height="47.6667" fill="#5784F1" fill-opacity="0.2"/>
<rect x="40" y="88.8334" width="28" height="47.6667" stroke="#5784F1" stroke-width="1.5"/>
<path d="M53.9917 118.833C51.4268 118.833 49.5923 117.438 49.5425 115.413H51.7173C51.7754 116.376 52.7383 117.015 53.9917 117.007C55.3115 117.015 56.2661 116.284 56.2661 115.214C56.2661 114.135 55.3364 113.363 53.7759 113.354H52.6968V111.694H53.7759C55.0542 111.694 55.9424 110.98 55.9341 109.934C55.9424 108.922 55.1787 108.241 54.0083 108.241C52.8794 108.241 51.9082 108.872 51.8667 109.885H49.7915C49.8413 107.867 51.6758 106.481 54.0249 106.481C56.4653 106.481 58.0425 107.975 58.0259 109.818C58.0425 111.163 57.146 112.134 55.8345 112.408V112.508C57.5278 112.732 58.4907 113.819 58.4741 115.33C58.4907 117.364 56.5898 118.833 53.9917 118.833Z" fill="#364F8E"/>
<rect x="68" y="88.8334" width="332" height="47.6667" stroke="#5784F1" stroke-width="1.5"/>
<path d="M160.223 105.136V120.161H158.396V112.059H155.574V110.565H158.396V105.136H160.223ZM148.319 116.708V106.431H155.342V107.942H150.179V110.632H154.744V112.093H150.179V115.18C152.461 115.172 154.171 115.089 156.105 114.782L156.288 116.276C154.105 116.608 152.179 116.691 149.498 116.708H148.319ZM174.799 105.136V120.144H172.956V105.136H174.799ZM162.48 115.878C164.871 114.823 166.249 112.3 166.249 109.901V109.121H162.945V107.643H166.249V105.452H168.075V107.643H171.312V109.121H168.092V109.901C168.083 112.184 169.486 114.633 171.91 115.645L170.897 117.056C169.179 116.326 167.884 114.832 167.195 113.022C166.523 114.94 165.228 116.542 163.477 117.305L162.48 115.878ZM184.345 107.527V109.005H176.99V107.527H179.779V105.568H181.605V107.527H184.345ZM177.422 113.288C177.405 111.246 178.792 109.793 180.692 109.802C182.602 109.793 183.963 111.246 183.963 113.288C183.963 115.371 182.602 116.824 180.692 116.824C178.792 116.824 177.405 115.371 177.422 113.288ZM179.049 113.288C179.041 114.5 179.721 115.255 180.692 115.247C181.655 115.255 182.336 114.5 182.336 113.288C182.336 112.109 181.655 111.329 180.692 111.329C179.721 111.329 179.041 112.109 179.049 113.288ZM184.976 119.464V105.452H186.702V111.312H188.163V105.136H189.923V120.144H188.163V112.806H186.702V119.464H184.976ZM197.261 108.739C197.252 111.528 198.589 114.267 200.979 115.313L199.867 116.791C198.174 115.961 196.979 114.367 196.339 112.4C195.684 114.475 194.455 116.201 192.729 117.073L191.566 115.579C194.015 114.433 195.376 111.545 195.385 108.739V106.348H197.261V108.739ZM199.319 111.478V109.984H202.474V105.136H204.3V120.161H202.474V111.478H199.319ZM224.122 113.504V114.998H218.162V120.128H216.336V114.998H210.442V113.504H224.122ZM211.156 111.047C214.103 110.673 216.079 109.088 216.211 107.444H211.704V105.983H222.86V107.444H218.353C218.478 109.088 220.437 110.673 223.408 111.047L222.744 112.491C220.188 112.126 218.195 110.955 217.282 109.337C216.361 110.955 214.385 112.126 211.854 112.491L211.156 111.047ZM233.519 106.249V107.145C233.502 108.166 233.502 109.66 233.153 111.561L231.327 111.395C231.626 109.851 231.684 108.698 231.701 107.776H225.865V106.249H233.519ZM224.969 112.757C225.857 112.748 226.853 112.74 227.907 112.723V109.669H229.733V112.665C231.286 112.599 232.879 112.483 234.332 112.275L234.432 113.603C231.311 114.168 227.766 114.226 225.135 114.234L224.969 112.757ZM227.21 119.845V115.38H229.069V118.351H237.586V119.845H227.21ZM235.212 116.376V105.136H237.104V109.818H239.047V111.362H237.104V116.376H235.212ZM245.422 107.278C245.414 109.254 246.659 111.113 249.041 111.86L248.128 113.321C246.401 112.748 245.165 111.603 244.484 110.134C243.812 111.711 242.55 112.964 240.773 113.57L239.844 112.126C242.268 111.304 243.521 109.312 243.513 107.278V105.85H245.422V107.278ZM242.085 116.276V114.799H252.328V120.144H250.469V116.276H242.085ZM250.469 114.118V105.136H252.328V114.118H250.469ZM270.391 105.136V108.473H272.482V110.001H270.391V113.155H268.548V105.136H270.391ZM259.185 112.757V106.066H265.858V107.56H261.011V111.246C263.833 111.238 265.402 111.155 267.187 110.764L267.386 112.259C265.418 112.665 263.675 112.748 260.396 112.757H259.185ZM260.662 119.928V113.902H262.505V115.446H268.548V113.902H270.391V119.928H260.662ZM262.505 118.434H268.548V116.907H262.505V118.434ZM285.083 105.136V109.536H287.175V111.063H285.083V116.11H283.24V105.136H285.083ZM273.412 109.918C273.404 107.701 275.18 106.141 277.463 106.133C279.746 106.141 281.497 107.701 281.514 109.918C281.497 112.101 279.746 113.686 277.463 113.686C275.18 113.686 273.404 112.101 273.412 109.918ZM275.222 109.918C275.213 111.213 276.209 112.068 277.463 112.059C278.733 112.068 279.696 111.213 279.704 109.918C279.696 108.59 278.733 107.743 277.463 107.743C276.209 107.743 275.213 108.59 275.222 109.918ZM275.471 119.845V114.965H277.313V118.351H285.681V119.845H275.471ZM304.474 105.136V113.188H302.614V105.136H304.474ZM292.238 109.32C292.238 107.237 293.965 105.792 296.289 105.801C298.605 105.792 300.332 107.237 300.323 109.32C300.332 111.37 298.605 112.815 296.289 112.806C293.965 112.815 292.238 111.37 292.238 109.32ZM294.048 109.32C294.04 110.524 294.978 111.287 296.289 111.296C297.576 111.287 298.514 110.524 298.514 109.32C298.514 108.116 297.576 107.336 296.289 107.344C294.978 107.336 294.04 108.116 294.048 109.32ZM294.546 119.962V113.885H296.372V115.429H302.631V113.885H304.474V119.962H294.546ZM296.372 118.468H302.631V116.874H296.372V118.468ZM313.837 106.033V110.549H309.105V112.391C311.521 112.391 312.891 112.325 314.484 112.026L314.667 113.52C312.874 113.827 311.322 113.869 308.375 113.869H307.279V109.171H311.994V107.494H307.246V106.033H313.837ZM308.973 116.575V115.097H319.232V120.144H317.39V116.575H308.973ZM314.733 111.91V110.432H317.39V108.756H314.733V107.278H317.39V105.153H319.232V114.384H317.39V111.91H314.733Z" fill="#BDBCB8"/>
<rect x="40" y="136.5" width="28" height="47.6667" fill="#5784F1" fill-opacity="0.2"/>
<rect x="40" y="136.5" width="28" height="47.6667" stroke="#5784F1" stroke-width="1.5"/>
<path d="M49.2935 164.092V162.366L54.4897 154.314H57.1792V162.316H58.7563V164.092H57.1792V166.333H55.1206V164.092H49.2935ZM51.5015 162.316H55.1538V156.771H55.021L51.5015 162.233V162.316Z" fill="#364F8E"/>
<rect x="68" y="136.5" width="332" height="47.6667" stroke="#5784F1" stroke-width="1.5"/>
<path d="M217.232 166.333V164.773L221.482 160.672C222.694 159.46 223.325 158.746 223.325 157.734C223.325 156.613 222.437 155.908 221.267 155.908C220.03 155.908 219.233 156.68 219.241 157.9H217.183C217.174 155.625 218.884 154.148 221.283 154.148C223.74 154.148 225.392 155.617 225.4 157.634C225.392 158.987 224.745 160.083 222.379 162.316L220.237 164.441V164.524H225.583V166.333H217.232ZM231.742 166.499C229.343 166.499 227.575 165.063 227.509 163.079H229.617C229.684 164.051 230.605 164.748 231.742 164.756C233.087 164.748 234.058 163.777 234.05 162.449C234.058 161.071 233.062 160.099 231.676 160.091C230.738 160.083 230.057 160.415 229.684 161.12H227.675L228.405 154.314H235.511V156.123H230.182L229.816 159.311H229.933C230.397 158.788 231.269 158.406 232.257 158.398C234.49 158.406 236.15 160.066 236.142 162.382C236.15 164.781 234.34 166.499 231.742 166.499ZM238.897 166.466C238.184 166.466 237.594 165.885 237.603 165.171C237.594 164.474 238.184 163.901 238.897 163.893C239.586 163.901 240.176 164.474 240.176 165.171C240.176 165.885 239.586 166.466 238.897 166.466ZM246.269 154.148C248.618 154.164 250.958 155.567 250.967 159.958C250.967 164.1 249.091 166.499 246.136 166.499C243.82 166.499 242.218 165.055 241.952 163.063H244.094C244.31 164.017 245.048 164.623 246.136 164.623C247.879 164.623 248.858 163.088 248.875 160.506H248.742C248.136 161.552 246.974 162.175 245.654 162.166C243.504 162.175 241.844 160.539 241.836 158.265C241.836 155.916 243.604 154.131 246.269 154.148ZM243.944 158.215C243.944 159.51 244.907 160.523 246.252 160.523C247.588 160.523 248.618 159.444 248.609 158.199C248.609 156.978 247.63 155.899 246.285 155.891C244.932 155.899 243.928 156.929 243.944 158.215Z" fill="#090909"/>
<rect x="40" y="184.167" width="28" height="47.6667" fill="#5784F1" fill-opacity="0.2"/>
<rect x="40" y="184.167" width="28" height="47.6667" stroke="#5784F1" stroke-width="1.5"/>
<path d="M54.0166 214.166C51.6177 214.166 49.8496 212.73 49.7832 210.746H51.8916C51.958 211.717 52.8794 212.415 54.0166 212.423C55.3613 212.415 56.3325 211.443 56.3242 210.115C56.3325 208.737 55.3364 207.766 53.9502 207.758C53.0122 207.75 52.3315 208.082 51.958 208.787H49.9492L50.6797 201.98H57.7852V203.79H52.4561L52.0908 206.978H52.207C52.6719 206.455 53.5435 206.073 54.5312 206.064C56.7642 206.073 58.4243 207.733 58.416 210.049C58.4243 212.448 56.6147 214.166 54.0166 214.166Z" fill="#364F8E"/>
<rect x="68" y="184.167" width="332" height="47.6667" stroke="#5784F1" stroke-width="1.5"/>
<path d="M160.223 200.47V215.494H158.396V207.393H155.574V205.898H158.396V200.47H160.223ZM148.319 212.041V201.765H155.342V203.275H150.179V205.965H154.744V207.426H150.179V210.514C152.461 210.505 154.171 210.422 156.105 210.115L156.288 211.609C154.105 211.941 152.179 212.024 149.498 212.041H148.319ZM174.799 200.47V215.478H172.956V200.47H174.799ZM162.48 211.211C164.871 210.157 166.249 207.633 166.249 205.234V204.454H162.945V202.977H166.249V200.785H168.075V202.977H171.312V204.454H168.092V205.234C168.083 207.517 169.486 209.966 171.91 210.979L170.897 212.39C169.179 211.659 167.884 210.165 167.195 208.355C166.523 210.273 165.228 211.875 163.477 212.639L162.48 211.211ZM184.345 202.86V204.338H176.99V202.86H179.779V200.901H181.605V202.86H184.345ZM177.422 208.621C177.405 206.579 178.792 205.126 180.692 205.135C182.602 205.126 183.963 206.579 183.963 208.621C183.963 210.705 182.602 212.157 180.692 212.157C178.792 212.157 177.405 210.705 177.422 208.621ZM179.049 208.621C179.041 209.833 179.721 210.588 180.692 210.58C181.655 210.588 182.336 209.833 182.336 208.621C182.336 207.442 181.655 206.662 180.692 206.662C179.721 206.662 179.041 207.442 179.049 208.621ZM184.976 214.797V200.785H186.702V206.646H188.163V200.47H189.923V215.478H188.163V208.14H186.702V214.797H184.976ZM197.261 204.072C197.252 206.861 198.589 209.601 200.979 210.646L199.867 212.124C198.174 211.294 196.979 209.7 196.339 207.733C195.684 209.808 194.455 211.535 192.729 212.406L191.566 210.912C194.015 209.767 195.376 206.878 195.385 204.072V201.682H197.261V204.072ZM199.319 206.812V205.317H202.474V200.47H204.3V215.494H202.474V206.812H199.319ZM224.122 208.837V210.331H218.162V215.461H216.336V210.331H210.442V208.837H224.122ZM211.156 206.38C214.103 206.006 216.079 204.421 216.211 202.777H211.704V201.316H222.86V202.777H218.353C218.478 204.421 220.437 206.006 223.408 206.38L222.744 207.824C220.188 207.459 218.195 206.289 217.282 204.67C216.361 206.289 214.385 207.459 211.854 207.824L211.156 206.38ZM233.519 201.582V202.479C233.502 203.5 233.502 204.994 233.153 206.895L231.327 206.729C231.626 205.185 231.684 204.031 231.701 203.109H225.865V201.582H233.519ZM224.969 208.09C225.857 208.082 226.853 208.073 227.907 208.057V205.002H229.733V207.999C231.286 207.932 232.879 207.816 234.332 207.608L234.432 208.937C231.311 209.501 227.766 209.559 225.135 209.567L224.969 208.09ZM227.21 215.179V210.713H229.069V213.685H237.586V215.179H227.21ZM235.212 211.709V200.47H237.104V205.151H239.047V206.695H237.104V211.709H235.212ZM245.422 202.611C245.414 204.587 246.659 206.446 249.041 207.193L248.128 208.654C246.401 208.082 245.165 206.936 244.484 205.467C243.812 207.044 242.55 208.297 240.773 208.903L239.844 207.459C242.268 206.637 243.521 204.645 243.513 202.611V201.184H245.422V202.611ZM242.085 211.609V210.132H252.328V215.478H250.469V211.609H242.085ZM250.469 209.451V200.47H252.328V209.451H250.469ZM270.391 200.47V203.807H272.482V205.334H270.391V208.488H268.548V200.47H270.391ZM259.185 208.09V201.399H265.858V202.894H261.011V206.579C263.833 206.571 265.402 206.488 267.187 206.098L267.386 207.592C265.418 207.999 263.675 208.082 260.396 208.09H259.185ZM260.662 215.262V209.235H262.505V210.779H268.548V209.235H270.391V215.262H260.662ZM262.505 213.768H268.548V212.24H262.505V213.768ZM285.083 200.47V204.869H287.175V206.396H285.083V211.443H283.24V200.47H285.083ZM273.412 205.251C273.404 203.035 275.18 201.474 277.463 201.466C279.746 201.474 281.497 203.035 281.514 205.251C281.497 207.434 279.746 209.02 277.463 209.02C275.18 209.02 273.404 207.434 273.412 205.251ZM275.222 205.251C275.213 206.546 276.209 207.401 277.463 207.393C278.733 207.401 279.696 206.546 279.704 205.251C279.696 203.923 278.733 203.076 277.463 203.076C276.209 203.076 275.213 203.923 275.222 205.251ZM275.471 215.179V210.298H277.313V213.685H285.681V215.179H275.471ZM304.474 200.47V208.521H302.614V200.47H304.474ZM292.238 204.653C292.238 202.57 293.965 201.125 296.289 201.134C298.605 201.125 300.332 202.57 300.323 204.653C300.332 206.704 298.605 208.148 296.289 208.14C293.965 208.148 292.238 206.704 292.238 204.653ZM294.048 204.653C294.04 205.857 294.978 206.621 296.289 206.629C297.576 206.621 298.514 205.857 298.514 204.653C298.514 203.45 297.576 202.669 296.289 202.678C294.978 202.669 294.04 203.45 294.048 204.653ZM294.546 215.295V209.219H296.372V210.763H302.631V209.219H304.474V215.295H294.546ZM296.372 213.801H302.631V212.207H296.372V213.801ZM313.837 201.366V205.882H309.105V207.725C311.521 207.725 312.891 207.658 314.484 207.359L314.667 208.854C312.874 209.161 311.322 209.202 308.375 209.202H307.279V204.504H311.994V202.827H307.246V201.366H313.837ZM308.973 211.908V210.431H319.232V215.478H317.39V211.908H308.973ZM314.733 207.243V205.766H317.39V204.089H314.733V202.611H317.39V200.486H319.232V209.717H317.39V207.243H314.733Z" fill="#BDBCB8"/>
<rect x="40" y="231.833" width="28" height="47.6667" fill="#5784F1" fill-opacity="0.2"/>
<rect x="40" y="231.833" width="28" height="47.6667" stroke="#5784F1" stroke-width="1.5"/>
<path d="M54.1162 261.833C51.7671 261.816 49.4263 260.422 49.4346 255.989C49.4346 251.88 51.3022 249.481 54.249 249.481C56.5649 249.481 58.1587 250.934 58.4326 252.885H56.291C56.0752 251.963 55.3447 251.349 54.249 251.357C52.5059 251.349 51.5347 252.893 51.5264 255.425H51.6426C52.2568 254.387 53.4106 253.773 54.7305 253.781C56.8887 253.773 58.5571 255.408 58.5488 257.682C58.5571 260.073 56.7725 261.849 54.1162 261.833ZM51.7588 257.749C51.7754 259.002 52.7549 260.081 54.1162 260.09C55.4526 260.081 56.4487 259.052 56.457 257.732C56.4487 256.454 55.4858 255.425 54.1494 255.425C52.7964 255.425 51.7754 256.495 51.7588 257.749Z" fill="#364F8E"/>
<rect x="68" y="231.833" width="332" height="47.6667" stroke="#5784F1" stroke-width="1.5"/>
<path d="M160.223 248.136V263.161H158.396V255.059H155.574V253.565H158.396V248.136H160.223ZM148.319 259.708V249.431H155.342V250.942H150.179V253.632H154.744V255.093H150.179V258.18C152.461 258.172 154.171 258.089 156.105 257.782L156.288 259.276C154.105 259.608 152.179 259.691 149.498 259.708H148.319ZM174.799 248.136V263.144H172.956V248.136H174.799ZM162.48 258.878C164.871 257.823 166.249 255.3 166.249 252.901V252.121H162.945V250.643H166.249V248.452H168.075V250.643H171.312V252.121H168.092V252.901C168.083 255.184 169.486 257.633 171.91 258.645L170.897 260.056C169.179 259.326 167.884 257.832 167.195 256.022C166.523 257.94 165.228 259.542 163.477 260.305L162.48 258.878ZM184.345 250.527V252.005H176.99V250.527H179.779V248.568H181.605V250.527H184.345ZM177.422 256.288C177.405 254.246 178.792 252.793 180.692 252.802C182.602 252.793 183.963 254.246 183.963 256.288C183.963 258.371 182.602 259.824 180.692 259.824C178.792 259.824 177.405 258.371 177.422 256.288ZM179.049 256.288C179.041 257.5 179.721 258.255 180.692 258.247C181.655 258.255 182.336 257.5 182.336 256.288C182.336 255.109 181.655 254.329 180.692 254.329C179.721 254.329 179.041 255.109 179.049 256.288ZM184.976 262.464V248.452H186.702V254.312H188.163V248.136H189.923V263.144H188.163V255.806H186.702V262.464H184.976ZM197.261 251.739C197.252 254.528 198.589 257.267 200.979 258.313L199.867 259.791C198.174 258.961 196.979 257.367 196.339 255.4C195.684 257.475 194.455 259.201 192.729 260.073L191.566 258.579C194.015 257.433 195.376 254.545 195.385 251.739V249.348H197.261V251.739ZM199.319 254.478V252.984H202.474V248.136H204.3V263.161H202.474V254.478H199.319ZM224.122 256.504V257.998H218.162V263.128H216.336V257.998H210.442V256.504H224.122ZM211.156 254.047C214.103 253.673 216.079 252.088 216.211 250.444H211.704V248.983H222.86V250.444H218.353C218.478 252.088 220.437 253.673 223.408 254.047L222.744 255.491C220.188 255.126 218.195 253.955 217.282 252.337C216.361 253.955 214.385 255.126 211.854 255.491L211.156 254.047ZM233.519 249.249V250.145C233.502 251.166 233.502 252.66 233.153 254.561L231.327 254.395C231.626 252.851 231.684 251.698 231.701 250.776H225.865V249.249H233.519ZM224.969 255.757C225.857 255.748 226.853 255.74 227.907 255.723V252.669H229.733V255.665C231.286 255.599 232.879 255.483 234.332 255.275L234.432 256.603C231.311 257.168 227.766 257.226 225.135 257.234L224.969 255.757ZM227.21 262.845V258.38H229.069V261.351H237.586V262.845H227.21ZM235.212 259.376V248.136H237.104V252.818H239.047V254.362H237.104V259.376H235.212ZM245.422 250.278C245.414 252.254 246.659 254.113 249.041 254.86L248.128 256.321C246.401 255.748 245.165 254.603 244.484 253.134C243.812 254.711 242.55 255.964 240.773 256.57L239.844 255.126C242.268 254.304 243.521 252.312 243.513 250.278V248.85H245.422V250.278ZM242.085 259.276V257.799H252.328V263.144H250.469V259.276H242.085ZM250.469 257.118V248.136H252.328V257.118H250.469ZM270.391 248.136V251.473H272.482V253.001H270.391V256.155H268.548V248.136H270.391ZM259.185 255.757V249.066H265.858V250.56H261.011V254.246C263.833 254.238 265.402 254.155 267.187 253.764L267.386 255.259C265.418 255.665 263.675 255.748 260.396 255.757H259.185ZM260.662 262.928V256.902H262.505V258.446H268.548V256.902H270.391V262.928H260.662ZM262.505 261.434H268.548V259.907H262.505V261.434ZM285.083 248.136V252.536H287.175V254.063H285.083V259.11H283.24V248.136H285.083ZM273.412 252.918C273.404 250.701 275.18 249.141 277.463 249.133C279.746 249.141 281.497 250.701 281.514 252.918C281.497 255.101 279.746 256.686 277.463 256.686C275.18 256.686 273.404 255.101 273.412 252.918ZM275.222 252.918C275.213 254.213 276.209 255.068 277.463 255.059C278.733 255.068 279.696 254.213 279.704 252.918C279.696 251.59 278.733 250.743 277.463 250.743C276.209 250.743 275.213 251.59 275.222 252.918ZM275.471 262.845V257.965H277.313V261.351H285.681V262.845H275.471ZM304.474 248.136V256.188H302.614V248.136H304.474ZM292.238 252.32C292.238 250.237 293.965 248.792 296.289 248.801C298.605 248.792 300.332 250.237 300.323 252.32C300.332 254.37 298.605 255.815 296.289 255.806C293.965 255.815 292.238 254.37 292.238 252.32ZM294.048 252.32C294.04 253.524 294.978 254.287 296.289 254.296C297.576 254.287 298.514 253.524 298.514 252.32C298.514 251.116 297.576 250.336 296.289 250.344C294.978 250.336 294.04 251.116 294.048 252.32ZM294.546 262.962V256.885H296.372V258.429H302.631V256.885H304.474V262.962H294.546ZM296.372 261.468H302.631V259.874H296.372V261.468ZM313.837 249.033V253.549H309.105V255.391C311.521 255.391 312.891 255.325 314.484 255.026L314.667 256.52C312.874 256.827 311.322 256.869 308.375 256.869H307.279V252.171H311.994V250.494H307.246V249.033H313.837ZM308.973 259.575V258.097H319.232V263.144H317.39V259.575H308.973ZM314.733 254.91V253.432H317.39V251.756H314.733V250.278H317.39V248.153H319.232V257.384H317.39V254.91H314.733Z" fill="#BDBCB8"/>
<rect x="40" y="279.5" width="28" height="47.6667" fill="#5784F1" fill-opacity="0.2"/>
<rect x="40" y="279.5" width="28" height="47.6667" stroke="#5784F1" stroke-width="1.5"/>
<path d="M50.6216 309.333L55.8345 299.206V299.123H49.7915V297.314H58.0757V299.157L52.8628 309.333H50.6216Z" fill="#364F8E"/>
<rect x="68" y="279.5" width="332" height="47.6667" stroke="#5784F1" stroke-width="1.5"/>
<path d="M160.223 295.803V310.828H158.396V302.726H155.574V301.232H158.396V295.803H160.223ZM148.319 307.374V297.098H155.342V298.609H150.179V301.298H154.744V302.759H150.179V305.847C152.461 305.839 154.171 305.756 156.105 305.449L156.288 306.943C154.105 307.275 152.179 307.358 149.498 307.374H148.319ZM174.799 295.803V310.811H172.956V295.803H174.799ZM162.48 306.544C164.871 305.49 166.249 302.967 166.249 300.568V299.787H162.945V298.31H166.249V296.119H168.075V298.31H171.312V299.787H168.092V300.568C168.083 302.85 169.486 305.299 171.91 306.312L170.897 307.723C169.179 306.993 167.884 305.498 167.195 303.689C166.523 305.606 165.228 307.208 163.477 307.972L162.48 306.544ZM184.345 298.194V299.671H176.99V298.194H179.779V296.235H181.605V298.194H184.345ZM177.422 303.954C177.405 301.912 178.792 300.46 180.692 300.468C182.602 300.46 183.963 301.912 183.963 303.954C183.963 306.038 182.602 307.491 180.692 307.491C178.792 307.491 177.405 306.038 177.422 303.954ZM179.049 303.954C179.041 305.166 179.721 305.922 180.692 305.913C181.655 305.922 182.336 305.166 182.336 303.954C182.336 302.776 181.655 301.995 180.692 301.995C179.721 301.995 179.041 302.776 179.049 303.954ZM184.976 310.13V296.119H186.702V301.979H188.163V295.803H189.923V310.811H188.163V303.473H186.702V310.13H184.976ZM197.261 299.406C197.252 302.195 198.589 304.934 200.979 305.98L199.867 307.457C198.174 306.627 196.979 305.034 196.339 303.066C195.684 305.141 194.455 306.868 192.729 307.74L191.566 306.245C194.015 305.1 195.376 302.211 195.385 299.406V297.015H197.261V299.406ZM199.319 302.145V300.651H202.474V295.803H204.3V310.828H202.474V302.145H199.319ZM224.122 304.17V305.664H218.162V310.794H216.336V305.664H210.442V304.17H224.122ZM211.156 301.713C214.103 301.34 216.079 299.754 216.211 298.111H211.704V296.65H222.86V298.111H218.353C218.478 299.754 220.437 301.34 223.408 301.713L222.744 303.158C220.188 302.792 218.195 301.622 217.282 300.003C216.361 301.622 214.385 302.792 211.854 303.158L211.156 301.713ZM233.519 296.915V297.812C233.502 298.833 233.502 300.327 233.153 302.228L231.327 302.062C231.626 300.518 231.684 299.364 231.701 298.443H225.865V296.915H233.519ZM224.969 303.423C225.857 303.415 226.853 303.407 227.907 303.39V300.335H229.733V303.332C231.286 303.266 232.879 303.149 234.332 302.942L234.432 304.27C231.311 304.834 227.766 304.892 225.135 304.901L224.969 303.423ZM227.21 310.512V306.046H229.069V309.018H237.586V310.512H227.21ZM235.212 307.042V295.803H237.104V300.485H239.047V302.029H237.104V307.042H235.212ZM245.422 297.945C245.414 299.92 246.659 301.78 249.041 302.527L248.128 303.988C246.401 303.415 245.165 302.269 244.484 300.8C243.812 302.377 242.55 303.631 240.773 304.237L239.844 302.792C242.268 301.971 243.521 299.978 243.513 297.945V296.517H245.422V297.945ZM242.085 306.943V305.465H252.328V310.811H250.469V306.943H242.085ZM250.469 304.785V295.803H252.328V304.785H250.469ZM270.391 295.803V299.14H272.482V300.667H270.391V303.822H268.548V295.803H270.391ZM259.185 303.423V296.733H265.858V298.227H261.011V301.912C263.833 301.904 265.402 301.821 267.187 301.431L267.386 302.925C265.418 303.332 263.675 303.415 260.396 303.423H259.185ZM260.662 310.595V304.569H262.505V306.113H268.548V304.569H270.391V310.595H260.662ZM262.505 309.101H268.548V307.574H262.505V309.101ZM285.083 295.803V300.203H287.175V301.73H285.083V306.777H283.24V295.803H285.083ZM273.412 300.584C273.404 298.368 275.18 296.807 277.463 296.799C279.746 296.807 281.497 298.368 281.514 300.584C281.497 302.767 279.746 304.353 277.463 304.353C275.18 304.353 273.404 302.767 273.412 300.584ZM275.222 300.584C275.213 301.879 276.209 302.734 277.463 302.726C278.733 302.734 279.696 301.879 279.704 300.584C279.696 299.256 278.733 298.41 277.463 298.41C276.209 298.41 275.213 299.256 275.222 300.584ZM275.471 310.512V305.631H277.313V309.018H285.681V310.512H275.471ZM304.474 295.803V303.855H302.614V295.803H304.474ZM292.238 299.987C292.238 297.903 293.965 296.459 296.289 296.467C298.605 296.459 300.332 297.903 300.323 299.987C300.332 302.037 298.605 303.481 296.289 303.473C293.965 303.481 292.238 302.037 292.238 299.987ZM294.048 299.987C294.04 301.19 294.978 301.954 296.289 301.962C297.576 301.954 298.514 301.19 298.514 299.987C298.514 298.783 297.576 298.003 296.289 298.011C294.978 298.003 294.04 298.783 294.048 299.987ZM294.546 310.628V304.552H296.372V306.096H302.631V304.552H304.474V310.628H294.546ZM296.372 309.134H302.631V307.54H296.372V309.134ZM313.837 296.7V301.215H309.105V303.058C311.521 303.058 312.891 302.992 314.484 302.693L314.667 304.187C312.874 304.494 311.322 304.536 308.375 304.536H307.279V299.837H311.994V298.161H307.246V296.7H313.837ZM308.973 307.242V305.764H319.232V310.811H317.39V307.242H308.973ZM314.733 302.577V301.099H317.39V299.422H314.733V297.945H317.39V295.82H319.232V305.05H317.39V302.577H314.733Z" fill="#BDBCB8"/>
<rect x="40" y="327.167" width="28" height="47.6667" fill="#5784F1" fill-opacity="0.2"/>
<rect x="40" y="327.167" width="28" height="47.6667" stroke="#5784F1" stroke-width="1.5"/>
<path d="M54 357.166C51.3188 357.166 49.4263 355.738 49.4346 353.779C49.4263 352.252 50.5635 351.007 52.0078 350.775V350.708C50.7461 350.443 49.8911 349.347 49.8828 348.035C49.8911 346.176 51.626 344.815 54 344.815C56.3574 344.815 58.1006 346.176 58.1006 348.035C58.1006 349.355 57.2207 350.443 55.9756 350.708V350.775C57.4116 351.007 58.5571 352.252 58.5654 353.779C58.5571 355.738 56.6562 357.166 54 357.166ZM51.6592 353.58C51.6509 354.693 52.5723 355.456 54 355.456C55.4111 355.456 56.3325 354.693 56.3408 353.58C56.3325 352.451 55.353 351.613 54 351.621C52.647 351.613 51.6509 352.443 51.6592 353.58ZM51.9912 348.234C51.9995 349.289 52.8296 350.011 54 350.011C55.1538 350.011 55.9922 349.289 55.9922 348.234C55.9922 347.214 55.1787 346.508 54 346.508C52.7964 346.508 51.9995 347.214 51.9912 348.234Z" fill="#364F8E"/>
<rect x="68" y="327.167" width="332" height="47.6667" stroke="#5784F1" stroke-width="1.5"/>
<path d="M160.223 343.47V358.494H158.396V350.393H155.574V348.899H158.396V343.47H160.223ZM148.319 355.041V344.765H155.342V346.276H150.179V348.965H154.744V350.426H150.179V353.514C152.461 353.505 154.171 353.422 156.105 353.115L156.288 354.609C154.105 354.942 152.179 355.025 149.498 355.041H148.319ZM174.799 343.47V358.478H172.956V343.47H174.799ZM162.48 354.211C164.871 353.157 166.249 350.633 166.249 348.234V347.454H162.945V345.977H166.249V343.785H168.075V345.977H171.312V347.454H168.092V348.234C168.083 350.517 169.486 352.966 171.91 353.979L170.897 355.39C169.179 354.659 167.884 353.165 167.195 351.356C166.523 353.273 165.228 354.875 163.477 355.639L162.48 354.211ZM184.345 345.86V347.338H176.99V345.86H179.779V343.901H181.605V345.86H184.345ZM177.422 351.621C177.405 349.579 178.792 348.127 180.692 348.135C182.602 348.127 183.963 349.579 183.963 351.621C183.963 353.705 182.602 355.157 180.692 355.157C178.792 355.157 177.405 353.705 177.422 351.621ZM179.049 351.621C179.041 352.833 179.721 353.589 180.692 353.58C181.655 353.589 182.336 352.833 182.336 351.621C182.336 350.443 181.655 349.662 180.692 349.662C179.721 349.662 179.041 350.443 179.049 351.621ZM184.976 357.797V343.785H186.702V349.646H188.163V343.47H189.923V358.478H188.163V351.14H186.702V357.797H184.976ZM197.261 347.072C197.252 349.861 198.589 352.601 200.979 353.647L199.867 355.124C198.174 354.294 196.979 352.7 196.339 350.733C195.684 352.808 194.455 354.535 192.729 355.406L191.566 353.912C194.015 352.767 195.376 349.878 195.385 347.072V344.682H197.261V347.072ZM199.319 349.812V348.318H202.474V343.47H204.3V358.494H202.474V349.812H199.319ZM224.122 351.837V353.331H218.162V358.461H216.336V353.331H210.442V351.837H224.122ZM211.156 349.38C214.103 349.006 216.079 347.421 216.211 345.777H211.704V344.317H222.86V345.777H218.353C218.478 347.421 220.437 349.006 223.408 349.38L222.744 350.824C220.188 350.459 218.195 349.289 217.282 347.67C216.361 349.289 214.385 350.459 211.854 350.824L211.156 349.38ZM233.519 344.582V345.479C233.502 346.5 233.502 347.994 233.153 349.895L231.327 349.729C231.626 348.185 231.684 347.031 231.701 346.109H225.865V344.582H233.519ZM224.969 351.09C225.857 351.082 226.853 351.073 227.907 351.057V348.002H229.733V350.999C231.286 350.932 232.879 350.816 234.332 350.609L234.432 351.937C231.311 352.501 227.766 352.559 225.135 352.568L224.969 351.09ZM227.21 358.179V353.713H229.069V356.685H237.586V358.179H227.21ZM235.212 354.709V343.47H237.104V348.151H239.047V349.695H237.104V354.709H235.212ZM245.422 345.611C245.414 347.587 246.659 349.446 249.041 350.193L248.128 351.654C246.401 351.082 245.165 349.936 244.484 348.467C243.812 350.044 242.55 351.297 240.773 351.903L239.844 350.459C242.268 349.637 243.521 347.645 243.513 345.611V344.184H245.422V345.611ZM242.085 354.609V353.132H252.328V358.478H250.469V354.609H242.085ZM250.469 352.451V343.47H252.328V352.451H250.469ZM270.391 343.47V346.807H272.482V348.334H270.391V351.488H268.548V343.47H270.391ZM259.185 351.09V344.4H265.858V345.894H261.011V349.579C263.833 349.571 265.402 349.488 267.187 349.098L267.386 350.592C265.418 350.999 263.675 351.082 260.396 351.09H259.185ZM260.662 358.262V352.235H262.505V353.779H268.548V352.235H270.391V358.262H260.662ZM262.505 356.768H268.548V355.24H262.505V356.768ZM285.083 343.47V347.869H287.175V349.397H285.083V354.443H283.24V343.47H285.083ZM273.412 348.251C273.404 346.035 275.18 344.474 277.463 344.466C279.746 344.474 281.497 346.035 281.514 348.251C281.497 350.434 279.746 352.02 277.463 352.02C275.18 352.02 273.404 350.434 273.412 348.251ZM275.222 348.251C275.213 349.546 276.209 350.401 277.463 350.393C278.733 350.401 279.696 349.546 279.704 348.251C279.696 346.923 278.733 346.076 277.463 346.076C276.209 346.076 275.213 346.923 275.222 348.251ZM275.471 358.179V353.298H277.313V356.685H285.681V358.179H275.471ZM304.474 343.47V351.522H302.614V343.47H304.474ZM292.238 347.653C292.238 345.57 293.965 344.126 296.289 344.134C298.605 344.126 300.332 345.57 300.323 347.653C300.332 349.704 298.605 351.148 296.289 351.14C293.965 351.148 292.238 349.704 292.238 347.653ZM294.048 347.653C294.04 348.857 294.978 349.621 296.289 349.629C297.576 349.621 298.514 348.857 298.514 347.653C298.514 346.45 297.576 345.67 296.289 345.678C294.978 345.67 294.04 346.45 294.048 347.653ZM294.546 358.295V352.219H296.372V353.763H302.631V352.219H304.474V358.295H294.546ZM296.372 356.801H302.631V355.207H296.372V356.801ZM313.837 344.366V348.882H309.105V350.725C311.521 350.725 312.891 350.658 314.484 350.359L314.667 351.854C312.874 352.161 311.322 352.202 308.375 352.202H307.279V347.504H311.994V345.827H307.246V344.366H313.837ZM308.973 354.908V353.431H319.232V358.478H317.39V354.908H308.973ZM314.733 350.243V348.766H317.39V347.089H314.733V345.611H317.39V343.486H319.232V352.717H317.39V350.243H314.733Z" fill="#BDBCB8"/>
<rect x="40" y="374.833" width="28" height="47.6667" fill="#5784F1" fill-opacity="0.2"/>
<rect x="40" y="374.833" width="28" height="47.6667" stroke="#5784F1" stroke-width="1.5"/>
<path d="M53.8838 392.481C56.2329 392.498 58.5737 393.901 58.582 398.292C58.582 402.434 56.7061 404.833 53.751 404.833C51.4351 404.833 49.833 403.388 49.5674 401.396H51.709C51.9248 402.351 52.6636 402.957 53.751 402.957C55.4941 402.957 56.4736 401.421 56.4902 398.84H56.3574C55.7515 399.885 54.5894 400.508 53.2695 400.5C51.1196 400.508 49.4595 398.873 49.4512 396.598C49.4512 394.249 51.2192 392.465 53.8838 392.481ZM51.5596 396.549C51.5596 397.844 52.5225 398.856 53.8672 398.856C55.2036 398.856 56.2329 397.777 56.2246 396.532C56.2246 395.312 55.2451 394.233 53.9004 394.224C52.5474 394.233 51.543 395.262 51.5596 396.549Z" fill="#364F8E"/>
<rect x="68" y="374.833" width="332" height="47.6667" stroke="#5784F1" stroke-width="1.5"/>
<path d="M160.223 391.136V406.161H158.396V398.059H155.574V396.565H158.396V391.136H160.223ZM148.319 402.708V392.431H155.342V393.942H150.179V396.632H154.744V398.093H150.179V401.18C152.461 401.172 154.171 401.089 156.105 400.782L156.288 402.276C154.105 402.608 152.179 402.691 149.498 402.708H148.319ZM174.799 391.136V406.144H172.956V391.136H174.799ZM162.48 401.878C164.871 400.823 166.249 398.3 166.249 395.901V395.121H162.945V393.643H166.249V391.452H168.075V393.643H171.312V395.121H168.092V395.901C168.083 398.184 169.486 400.633 171.91 401.645L170.897 403.056C169.179 402.326 167.884 400.832 167.195 399.022C166.523 400.94 165.228 402.542 163.477 403.305L162.48 401.878ZM184.345 393.527V395.005H176.99V393.527H179.779V391.568H181.605V393.527H184.345ZM177.422 399.288C177.405 397.246 178.792 395.793 180.692 395.802C182.602 395.793 183.963 397.246 183.963 399.288C183.963 401.371 182.602 402.824 180.692 402.824C178.792 402.824 177.405 401.371 177.422 399.288ZM179.049 399.288C179.041 400.5 179.721 401.255 180.692 401.247C181.655 401.255 182.336 400.5 182.336 399.288C182.336 398.109 181.655 397.329 180.692 397.329C179.721 397.329 179.041 398.109 179.049 399.288ZM184.976 405.464V391.452H186.702V397.312H188.163V391.136H189.923V406.144H188.163V398.806H186.702V405.464H184.976ZM197.261 394.739C197.252 397.528 198.589 400.267 200.979 401.313L199.867 402.791C198.174 401.961 196.979 400.367 196.339 398.4C195.684 400.475 194.455 402.201 192.729 403.073L191.566 401.579C194.015 400.433 195.376 397.545 195.385 394.739V392.348H197.261V394.739ZM199.319 397.478V395.984H202.474V391.136H204.3V406.161H202.474V397.478H199.319ZM224.122 399.504V400.998H218.162V406.128H216.336V400.998H210.442V399.504H224.122ZM211.156 397.047C214.103 396.673 216.079 395.088 216.211 393.444H211.704V391.983H222.86V393.444H218.353C218.478 395.088 220.437 396.673 223.408 397.047L222.744 398.491C220.188 398.126 218.195 396.955 217.282 395.337C216.361 396.955 214.385 398.126 211.854 398.491L211.156 397.047ZM233.519 392.249V393.145C233.502 394.166 233.502 395.66 233.153 397.561L231.327 397.395C231.626 395.851 231.684 394.698 231.701 393.776H225.865V392.249H233.519ZM224.969 398.757C225.857 398.748 226.853 398.74 227.907 398.723V395.669H229.733V398.665C231.286 398.599 232.879 398.483 234.332 398.275L234.432 399.603C231.311 400.168 227.766 400.226 225.135 400.234L224.969 398.757ZM227.21 405.845V401.38H229.069V404.351H237.586V405.845H227.21ZM235.212 402.376V391.136H237.104V395.818H239.047V397.362H237.104V402.376H235.212ZM245.422 393.278C245.414 395.254 246.659 397.113 249.041 397.86L248.128 399.321C246.401 398.748 245.165 397.603 244.484 396.134C243.812 397.711 242.55 398.964 240.773 399.57L239.844 398.126C242.268 397.304 243.521 395.312 243.513 393.278V391.85H245.422V393.278ZM242.085 402.276V400.799H252.328V406.144H250.469V402.276H242.085ZM250.469 400.118V391.136H252.328V400.118H250.469ZM270.391 391.136V394.473H272.482V396.001H270.391V399.155H268.548V391.136H270.391ZM259.185 398.757V392.066H265.858V393.56H261.011V397.246C263.833 397.238 265.402 397.155 267.187 396.764L267.386 398.259C265.418 398.665 263.675 398.748 260.396 398.757H259.185ZM260.662 405.928V399.902H262.505V401.446H268.548V399.902H270.391V405.928H260.662ZM262.505 404.434H268.548V402.907H262.505V404.434ZM285.083 391.136V395.536H287.175V397.063H285.083V402.11H283.24V391.136H285.083ZM273.412 395.918C273.404 393.701 275.18 392.141 277.463 392.133C279.746 392.141 281.497 393.701 281.514 395.918C281.497 398.101 279.746 399.686 277.463 399.686C275.18 399.686 273.404 398.101 273.412 395.918ZM275.222 395.918C275.213 397.213 276.209 398.068 277.463 398.059C278.733 398.068 279.696 397.213 279.704 395.918C279.696 394.59 278.733 393.743 277.463 393.743C276.209 393.743 275.213 394.59 275.222 395.918ZM275.471 405.845V400.965H277.313V404.351H285.681V405.845H275.471ZM304.474 391.136V399.188H302.614V391.136H304.474ZM292.238 395.32C292.238 393.237 293.965 391.792 296.289 391.801C298.605 391.792 300.332 393.237 300.323 395.32C300.332 397.37 298.605 398.815 296.289 398.806C293.965 398.815 292.238 397.37 292.238 395.32ZM294.048 395.32C294.04 396.524 294.978 397.287 296.289 397.296C297.576 397.287 298.514 396.524 298.514 395.32C298.514 394.116 297.576 393.336 296.289 393.344C294.978 393.336 294.04 394.116 294.048 395.32ZM294.546 405.962V399.885H296.372V401.429H302.631V399.885H304.474V405.962H294.546ZM296.372 404.468H302.631V402.874H296.372V404.468ZM313.837 392.033V396.549H309.105V398.391C311.521 398.391 312.891 398.325 314.484 398.026L314.667 399.52C312.874 399.827 311.322 399.869 308.375 399.869H307.279V395.171H311.994V393.494H307.246V392.033H313.837ZM308.973 402.575V401.097H319.232V406.144H317.39V402.575H308.973ZM314.733 397.91V396.432H317.39V394.756H314.733V393.278H317.39V391.153H319.232V400.384H317.39V397.91H314.733Z" fill="#BDBCB8"/>
<rect x="40" y="422.5" width="28" height="47.6667" fill="#5784F1" fill-opacity="0.2"/>
<rect x="40" y="422.5" width="28" height="47.6667" stroke="#5784F1" stroke-width="1.5"/>
<path d="M50.5469 440.314V452.333H48.3721V442.422H48.3057L45.5 444.215V442.24L48.4717 440.314H50.5469ZM57.9014 452.499C55.0044 452.499 53.2778 450.258 53.2861 446.324C53.2778 442.406 55.021 440.148 57.9014 440.148C60.7817 440.148 62.5166 442.406 62.5166 446.324C62.5166 450.266 60.79 452.499 57.9014 452.499ZM55.4609 446.324C55.4609 449.212 56.3906 450.682 57.9014 450.69C59.4038 450.682 60.3418 449.212 60.3418 446.324C60.3335 443.46 59.4038 441.949 57.9014 441.941C56.3989 441.949 55.4692 443.46 55.4609 446.324Z" fill="#364F8E"/>
<rect x="68" y="422.5" width="332" height="47.6667" stroke="#5784F1" stroke-width="1.5"/>
<path d="M160.223 438.803V453.828H158.396V445.726H155.574V444.232H158.396V438.803H160.223ZM148.319 450.374V440.098H155.342V441.609H150.179V444.298H154.744V445.759H150.179V448.847C152.461 448.839 154.171 448.756 156.105 448.449L156.288 449.943C154.105 450.275 152.179 450.358 149.498 450.374H148.319ZM174.799 438.803V453.811H172.956V438.803H174.799ZM162.48 449.544C164.871 448.49 166.249 445.967 166.249 443.568V442.787H162.945V441.31H166.249V439.119H168.075V441.31H171.312V442.787H168.092V443.568C168.083 445.85 169.486 448.299 171.91 449.312L170.897 450.723C169.179 449.993 167.884 448.498 167.195 446.689C166.523 448.606 165.228 450.208 163.477 450.972L162.48 449.544ZM184.345 441.194V442.671H176.99V441.194H179.779V439.235H181.605V441.194H184.345ZM177.422 446.954C177.405 444.912 178.792 443.46 180.692 443.468C182.602 443.46 183.963 444.912 183.963 446.954C183.963 449.038 182.602 450.491 180.692 450.491C178.792 450.491 177.405 449.038 177.422 446.954ZM179.049 446.954C179.041 448.166 179.721 448.922 180.692 448.913C181.655 448.922 182.336 448.166 182.336 446.954C182.336 445.776 181.655 444.995 180.692 444.995C179.721 444.995 179.041 445.776 179.049 446.954ZM184.976 453.13V439.119H186.702V444.979H188.163V438.803H189.923V453.811H188.163V446.473H186.702V453.13H184.976ZM197.261 442.406C197.252 445.195 198.589 447.934 200.979 448.98L199.867 450.457C198.174 449.627 196.979 448.034 196.339 446.066C195.684 448.141 194.455 449.868 192.729 450.74L191.566 449.245C194.015 448.1 195.376 445.211 195.385 442.406V440.015H197.261V442.406ZM199.319 445.145V443.651H202.474V438.803H204.3V453.828H202.474V445.145H199.319ZM224.122 447.17V448.664H218.162V453.794H216.336V448.664H210.442V447.17H224.122ZM211.156 444.713C214.103 444.34 216.079 442.754 216.211 441.111H211.704V439.65H222.86V441.111H218.353C218.478 442.754 220.437 444.34 223.408 444.713L222.744 446.158C220.188 445.792 218.195 444.622 217.282 443.003C216.361 444.622 214.385 445.792 211.854 446.158L211.156 444.713ZM233.519 439.915V440.812C233.502 441.833 233.502 443.327 233.153 445.228L231.327 445.062C231.626 443.518 231.684 442.364 231.701 441.443H225.865V439.915H233.519ZM224.969 446.423C225.857 446.415 226.853 446.407 227.907 446.39V443.335H229.733V446.332C231.286 446.266 232.879 446.149 234.332 445.942L234.432 447.27C231.311 447.834 227.766 447.892 225.135 447.901L224.969 446.423ZM227.21 453.512V449.046H229.069V452.018H237.586V453.512H227.21ZM235.212 450.042V438.803H237.104V443.485H239.047V445.029H237.104V450.042H235.212ZM245.422 440.945C245.414 442.92 246.659 444.78 249.041 445.527L248.128 446.988C246.401 446.415 245.165 445.269 244.484 443.8C243.812 445.377 242.55 446.631 240.773 447.237L239.844 445.792C242.268 444.971 243.521 442.978 243.513 440.945V439.517H245.422V440.945ZM242.085 449.943V448.465H252.328V453.811H250.469V449.943H242.085ZM250.469 447.785V438.803H252.328V447.785H250.469ZM270.391 438.803V442.14H272.482V443.667H270.391V446.822H268.548V438.803H270.391ZM259.185 446.423V439.733H265.858V441.227H261.011V444.912C263.833 444.904 265.402 444.821 267.187 444.431L267.386 445.925C265.418 446.332 263.675 446.415 260.396 446.423H259.185ZM260.662 453.595V447.569H262.505V449.113H268.548V447.569H270.391V453.595H260.662ZM262.505 452.101H268.548V450.574H262.505V452.101ZM285.083 438.803V443.203H287.175V444.73H285.083V449.777H283.24V438.803H285.083ZM273.412 443.584C273.404 441.368 275.18 439.807 277.463 439.799C279.746 439.807 281.497 441.368 281.514 443.584C281.497 445.767 279.746 447.353 277.463 447.353C275.18 447.353 273.404 445.767 273.412 443.584ZM275.222 443.584C275.213 444.879 276.209 445.734 277.463 445.726C278.733 445.734 279.696 444.879 279.704 443.584C279.696 442.256 278.733 441.41 277.463 441.41C276.209 441.41 275.213 442.256 275.222 443.584ZM275.471 453.512V448.631H277.313V452.018H285.681V453.512H275.471ZM304.474 438.803V446.855H302.614V438.803H304.474ZM292.238 442.987C292.238 440.903 293.965 439.459 296.289 439.467C298.605 439.459 300.332 440.903 300.323 442.987C300.332 445.037 298.605 446.481 296.289 446.473C293.965 446.481 292.238 445.037 292.238 442.987ZM294.048 442.987C294.04 444.19 294.978 444.954 296.289 444.962C297.576 444.954 298.514 444.19 298.514 442.987C298.514 441.783 297.576 441.003 296.289 441.011C294.978 441.003 294.04 441.783 294.048 442.987ZM294.546 453.628V447.552H296.372V449.096H302.631V447.552H304.474V453.628H294.546ZM296.372 452.134H302.631V450.54H296.372V452.134ZM313.837 439.7V444.215H309.105V446.058C311.521 446.058 312.891 445.992 314.484 445.693L314.667 447.187C312.874 447.494 311.322 447.536 308.375 447.536H307.279V442.837H311.994V441.161H307.246V439.7H313.837ZM308.973 450.242V448.764H319.232V453.811H317.39V450.242H308.973ZM314.733 445.577V444.099H317.39V442.422H314.733V440.945H317.39V438.82H319.232V448.05H317.39V445.577H314.733Z" fill="#BDBCB8"/>
<rect x="40" y="470.167" width="28" height="47.6667" fill="#5784F1" fill-opacity="0.2"/>
<rect x="40" y="470.167" width="28" height="47.6667" stroke="#5784F1" stroke-width="1.5"/>
<path d="M52.0742 487.981V500H49.8994V490.089H49.833L47.0273 491.882V489.906L49.999 487.981H52.0742ZM59.877 487.981V500H57.7021V490.089H57.6357L54.8301 491.882V489.906L57.8018 487.981H59.877Z" fill="#364F8E"/>
<rect x="68" y="470.167" width="332" height="47.6667" stroke="#5784F1" stroke-width="1.5"/>
<path d="M160.223 486.47V501.494H158.396V493.393H155.574V491.899H158.396V486.47H160.223ZM148.319 498.041V487.765H155.342V489.276H150.179V491.965H154.744V493.426H150.179V496.514C152.461 496.505 154.171 496.422 156.105 496.115L156.288 497.609C154.105 497.942 152.179 498.025 149.498 498.041H148.319ZM174.799 486.47V501.478H172.956V486.47H174.799ZM162.48 497.211C164.871 496.157 166.249 493.633 166.249 491.234V490.454H162.945V488.977H166.249V486.785H168.075V488.977H171.312V490.454H168.092V491.234C168.083 493.517 169.486 495.966 171.91 496.979L170.897 498.39C169.179 497.659 167.884 496.165 167.195 494.356C166.523 496.273 165.228 497.875 163.477 498.639L162.48 497.211ZM184.345 488.86V490.338H176.99V488.86H179.779V486.901H181.605V488.86H184.345ZM177.422 494.621C177.405 492.579 178.792 491.127 180.692 491.135C182.602 491.127 183.963 492.579 183.963 494.621C183.963 496.705 182.602 498.157 180.692 498.157C178.792 498.157 177.405 496.705 177.422 494.621ZM179.049 494.621C179.041 495.833 179.721 496.589 180.692 496.58C181.655 496.589 182.336 495.833 182.336 494.621C182.336 493.443 181.655 492.662 180.692 492.662C179.721 492.662 179.041 493.443 179.049 494.621ZM184.976 500.797V486.785H186.702V492.646H188.163V486.47H189.923V501.478H188.163V494.14H186.702V500.797H184.976ZM197.261 490.072C197.252 492.861 198.589 495.601 200.979 496.647L199.867 498.124C198.174 497.294 196.979 495.7 196.339 493.733C195.684 495.808 194.455 497.535 192.729 498.406L191.566 496.912C194.015 495.767 195.376 492.878 195.385 490.072V487.682H197.261V490.072ZM199.319 492.812V491.318H202.474V486.47H204.3V501.494H202.474V492.812H199.319ZM224.122 494.837V496.331H218.162V501.461H216.336V496.331H210.442V494.837H224.122ZM211.156 492.38C214.103 492.006 216.079 490.421 216.211 488.777H211.704V487.317H222.86V488.777H218.353C218.478 490.421 220.437 492.006 223.408 492.38L222.744 493.824C220.188 493.459 218.195 492.289 217.282 490.67C216.361 492.289 214.385 493.459 211.854 493.824L211.156 492.38ZM233.519 487.582V488.479C233.502 489.5 233.502 490.994 233.153 492.895L231.327 492.729C231.626 491.185 231.684 490.031 231.701 489.109H225.865V487.582H233.519ZM224.969 494.09C225.857 494.082 226.853 494.073 227.907 494.057V491.002H229.733V493.999C231.286 493.932 232.879 493.816 234.332 493.609L234.432 494.937C231.311 495.501 227.766 495.559 225.135 495.568L224.969 494.09ZM227.21 501.179V496.713H229.069V499.685H237.586V501.179H227.21ZM235.212 497.709V486.47H237.104V491.151H239.047V492.695H237.104V497.709H235.212ZM245.422 488.611C245.414 490.587 246.659 492.446 249.041 493.193L248.128 494.654C246.401 494.082 245.165 492.936 244.484 491.467C243.812 493.044 242.55 494.297 240.773 494.903L239.844 493.459C242.268 492.637 243.521 490.645 243.513 488.611V487.184H245.422V488.611ZM242.085 497.609V496.132H252.328V501.478H250.469V497.609H242.085ZM250.469 495.451V486.47H252.328V495.451H250.469ZM270.391 486.47V489.807H272.482V491.334H270.391V494.488H268.548V486.47H270.391ZM259.185 494.09V487.4H265.858V488.894H261.011V492.579C263.833 492.571 265.402 492.488 267.187 492.098L267.386 493.592C265.418 493.999 263.675 494.082 260.396 494.09H259.185ZM260.662 501.262V495.235H262.505V496.779H268.548V495.235H270.391V501.262H260.662ZM262.505 499.768H268.548V498.24H262.505V499.768ZM285.083 486.47V490.869H287.175V492.397H285.083V497.443H283.24V486.47H285.083ZM273.412 491.251C273.404 489.035 275.18 487.474 277.463 487.466C279.746 487.474 281.497 489.035 281.514 491.251C281.497 493.434 279.746 495.02 277.463 495.02C275.18 495.02 273.404 493.434 273.412 491.251ZM275.222 491.251C275.213 492.546 276.209 493.401 277.463 493.393C278.733 493.401 279.696 492.546 279.704 491.251C279.696 489.923 278.733 489.076 277.463 489.076C276.209 489.076 275.213 489.923 275.222 491.251ZM275.471 501.179V496.298H277.313V499.685H285.681V501.179H275.471ZM304.474 486.47V494.522H302.614V486.47H304.474ZM292.238 490.653C292.238 488.57 293.965 487.126 296.289 487.134C298.605 487.126 300.332 488.57 300.323 490.653C300.332 492.704 298.605 494.148 296.289 494.14C293.965 494.148 292.238 492.704 292.238 490.653ZM294.048 490.653C294.04 491.857 294.978 492.621 296.289 492.629C297.576 492.621 298.514 491.857 298.514 490.653C298.514 489.45 297.576 488.67 296.289 488.678C294.978 488.67 294.04 489.45 294.048 490.653ZM294.546 501.295V495.219H296.372V496.763H302.631V495.219H304.474V501.295H294.546ZM296.372 499.801H302.631V498.207H296.372V499.801ZM313.837 487.366V491.882H309.105V493.725C311.521 493.725 312.891 493.658 314.484 493.359L314.667 494.854C312.874 495.161 311.322 495.202 308.375 495.202H307.279V490.504H311.994V488.827H307.246V487.366H313.837ZM308.973 497.908V496.431H319.232V501.478H317.39V497.908H308.973ZM314.733 493.243V491.766H317.39V490.089H314.733V488.611H317.39V486.486H319.232V495.717H317.39V493.243H314.733Z" fill="#BDBCB8"/>
<rect x="40" y="517.833" width="28" height="47.6667" fill="#5784F1" fill-opacity="0.2"/>
<rect x="40" y="517.833" width="28" height="47.6667" stroke="#5784F1" stroke-width="1.5"/>
<path d="M50.854 535.647V547.667H48.6792V537.756H48.6128L45.8071 539.549V537.573L48.7788 535.647H50.854ZM53.7759 547.667V546.106L58.0259 542.006C59.2378 540.794 59.8687 540.08 59.8687 539.067C59.8687 537.947 58.9805 537.241 57.8101 537.241C56.5732 537.241 55.7764 538.013 55.7847 539.233H53.7261C53.7178 536.959 55.4277 535.481 57.8267 535.481C60.2837 535.481 61.9355 536.951 61.9438 538.968C61.9355 540.321 61.2881 541.416 58.9224 543.649L56.7808 545.774V545.857H62.1265V547.667H53.7759Z" fill="#364F8E"/>
<rect x="68" y="517.833" width="332" height="47.6667" stroke="#5784F1" stroke-width="1.5"/>
<path d="M160.223 534.137V549.161H158.396V541.059H155.574V539.565H158.396V534.137H160.223ZM148.319 545.708V535.432H155.342V536.942H150.179V539.632H154.744V541.093H150.179V544.181C152.461 544.172 154.171 544.089 156.105 543.782L156.288 545.276C154.105 545.608 152.179 545.691 149.498 545.708H148.319ZM174.799 534.137V549.144H172.956V534.137H174.799ZM162.48 544.878C164.871 543.824 166.249 541.3 166.249 538.901V538.121H162.945V536.643H166.249V534.452H168.075V536.643H171.312V538.121H168.092V538.901C168.083 541.184 169.486 543.633 171.91 544.645L170.897 546.057C169.179 545.326 167.884 543.832 167.195 542.022C166.523 543.94 165.228 545.542 163.477 546.306L162.48 544.878ZM184.345 536.527V538.005H176.99V536.527H179.779V534.568H181.605V536.527H184.345ZM177.422 542.288C177.405 540.246 178.792 538.793 180.692 538.802C182.602 538.793 183.963 540.246 183.963 542.288C183.963 544.371 182.602 545.824 180.692 545.824C178.792 545.824 177.405 544.371 177.422 542.288ZM179.049 542.288C179.041 543.5 179.721 544.255 180.692 544.247C181.655 544.255 182.336 543.5 182.336 542.288C182.336 541.109 181.655 540.329 180.692 540.329C179.721 540.329 179.041 541.109 179.049 542.288ZM184.976 548.464V534.452H186.702V540.312H188.163V534.137H189.923V549.144H188.163V541.807H186.702V548.464H184.976ZM197.261 537.739C197.252 540.528 198.589 543.267 200.979 544.313L199.867 545.791C198.174 544.961 196.979 543.367 196.339 541.4C195.684 543.475 194.455 545.202 192.729 546.073L191.566 544.579C194.015 543.433 195.376 540.545 195.385 537.739V535.349H197.261V537.739ZM199.319 540.478V538.984H202.474V534.137H204.3V549.161H202.474V540.478H199.319ZM224.122 542.504V543.998H218.162V549.128H216.336V543.998H210.442V542.504H224.122ZM211.156 540.047C214.103 539.673 216.079 538.088 216.211 536.444H211.704V534.983H222.86V536.444H218.353C218.478 538.088 220.437 539.673 223.408 540.047L222.744 541.491C220.188 541.126 218.195 539.955 217.282 538.337C216.361 539.955 214.385 541.126 211.854 541.491L211.156 540.047ZM233.519 535.249V536.145C233.502 537.166 233.502 538.661 233.153 540.561L231.327 540.395C231.626 538.851 231.684 537.698 231.701 536.776H225.865V535.249H233.519ZM224.969 541.757C225.857 541.748 226.853 541.74 227.907 541.724V538.669H229.733V541.665C231.286 541.599 232.879 541.483 234.332 541.275L234.432 542.603C231.311 543.168 227.766 543.226 225.135 543.234L224.969 541.757ZM227.21 548.846V544.38H229.069V547.351H237.586V548.846H227.21ZM235.212 545.376V534.137H237.104V538.818H239.047V540.362H237.104V545.376H235.212ZM245.422 536.278C245.414 538.254 246.659 540.113 249.041 540.86L248.128 542.321C246.401 541.748 245.165 540.603 244.484 539.134C243.812 540.711 242.55 541.964 240.773 542.57L239.844 541.126C242.268 540.304 243.521 538.312 243.513 536.278V534.85H245.422V536.278ZM242.085 545.276V543.799H252.328V549.144H250.469V545.276H242.085ZM250.469 543.118V534.137H252.328V543.118H250.469ZM270.391 534.137V537.474H272.482V539.001H270.391V542.155H268.548V534.137H270.391ZM259.185 541.757V535.066H265.858V536.56H261.011V540.246C263.833 540.238 265.402 540.155 267.187 539.765L267.386 541.259C265.418 541.665 263.675 541.748 260.396 541.757H259.185ZM260.662 548.929V542.902H262.505V544.446H268.548V542.902H270.391V548.929H260.662ZM262.505 547.434H268.548V545.907H262.505V547.434ZM285.083 534.137V538.536H287.175V540.063H285.083V545.11H283.24V534.137H285.083ZM273.412 538.918C273.404 536.702 275.18 535.141 277.463 535.133C279.746 535.141 281.497 536.702 281.514 538.918C281.497 541.101 279.746 542.686 277.463 542.686C275.18 542.686 273.404 541.101 273.412 538.918ZM275.222 538.918C275.213 540.213 276.209 541.068 277.463 541.059C278.733 541.068 279.696 540.213 279.704 538.918C279.696 537.59 278.733 536.743 277.463 536.743C276.209 536.743 275.213 537.59 275.222 538.918ZM275.471 548.846V543.965H277.313V547.351H285.681V548.846H275.471ZM304.474 534.137V542.188H302.614V534.137H304.474ZM292.238 538.32C292.238 536.237 293.965 534.792 296.289 534.801C298.605 534.792 300.332 536.237 300.323 538.32C300.332 540.37 298.605 541.815 296.289 541.807C293.965 541.815 292.238 540.37 292.238 538.32ZM294.048 538.32C294.04 539.524 294.978 540.287 296.289 540.296C297.576 540.287 298.514 539.524 298.514 538.32C298.514 537.117 297.576 536.336 296.289 536.345C294.978 536.336 294.04 537.117 294.048 538.32ZM294.546 548.962V542.886H296.372V544.43H302.631V542.886H304.474V548.962H294.546ZM296.372 547.468H302.631V545.874H296.372V547.468ZM313.837 535.033V539.549H309.105V541.391C311.521 541.391 312.891 541.325 314.484 541.026L314.667 542.52C312.874 542.828 311.322 542.869 308.375 542.869H307.279V538.171H311.994V536.494H307.246V535.033H313.837ZM308.973 545.575V544.098H319.232V549.144H317.39V545.575H308.973ZM314.733 540.91V539.432H317.39V537.756H314.733V536.278H317.39V534.153H319.232V543.384H317.39V540.91H314.733Z" fill="#BDBCB8"/>
<path d="M154.366 579.837V581.331H148.406V586.461H146.58V581.331H140.686V579.837H154.366ZM141.4 577.38C144.347 577.006 146.322 575.421 146.455 573.777H141.948V572.316H153.104V573.777H148.597C148.721 575.421 150.68 577.006 153.652 577.38L152.988 578.824C150.431 578.459 148.439 577.289 147.526 575.67C146.604 577.289 144.629 578.459 142.097 578.824L141.4 577.38ZM163.762 572.582V573.479C163.746 574.5 163.746 575.994 163.397 577.895L161.571 577.729C161.87 576.185 161.928 575.031 161.944 574.109H156.109V572.582H163.762ZM155.212 579.09C156.101 579.082 157.097 579.073 158.151 579.057V576.002H159.977V578.999C161.529 578.932 163.123 578.816 164.576 578.608L164.675 579.937C161.554 580.501 158.01 580.559 155.378 580.567L155.212 579.09ZM157.454 586.179V581.713H159.313V584.685H167.83V586.179H157.454ZM165.456 582.709V571.47H167.348V576.151H169.291V577.695H167.348V582.709H165.456ZM175.666 573.611C175.657 575.587 176.902 577.446 179.285 578.193L178.372 579.654C176.645 579.082 175.408 577.936 174.728 576.467C174.055 578.044 172.793 579.297 171.017 579.903L170.087 578.459C172.511 577.637 173.765 575.645 173.756 573.611V572.184H175.666V573.611ZM172.329 582.609V581.132H182.572V586.478H180.712V582.609H172.329ZM180.712 580.451V571.47H182.572V580.451H180.712ZM201.298 571.47V579.521H199.439V571.47H201.298ZM189.063 575.653C189.063 573.57 190.79 572.125 193.114 572.134C195.43 572.125 197.156 573.57 197.148 575.653C197.156 577.704 195.43 579.148 193.114 579.14C190.79 579.148 189.063 577.704 189.063 575.653ZM190.873 575.653C190.864 576.857 191.802 577.621 193.114 577.629C194.4 577.621 195.338 576.857 195.338 575.653C195.338 574.45 194.4 573.669 193.114 573.678C191.802 573.669 190.864 574.45 190.873 575.653ZM191.371 586.295V580.219H193.197V581.763H199.456V580.219H201.298V586.295H191.371ZM193.197 584.801H199.456V583.207H193.197V584.801ZM210.662 572.366V576.882H205.93V578.725C208.346 578.725 209.715 578.658 211.309 578.359L211.492 579.854C209.699 580.161 208.146 580.202 205.2 580.202H204.104V575.504H208.819V573.827H204.071V572.366H210.662ZM205.797 582.908V581.431H216.057V586.478H214.214V582.908H205.797ZM211.558 578.243V576.766H214.214V575.089H211.558V573.611H214.214V571.486H216.057V580.717H214.214V578.243H211.558ZM235.913 580.202V581.663H229.936V586.478H228.11V581.663H222.2V580.202H235.913ZM223.86 578.642V572.067H225.686V573.91H232.393V572.067H234.252V578.642H223.86ZM225.686 577.147H232.393V575.371H225.686V577.147ZM250.605 579.239V580.717H244.811V583.307H242.985V580.717H236.892V579.239H250.605ZM238.552 586.179V582.045H240.378V584.685H249.094V586.179H238.552ZM238.685 578.061V571.951H240.511V573.645H246.986V571.951H248.812V578.061H238.685ZM240.511 576.6H246.986V575.022H240.511V576.6ZM264.102 571.47V579.521H262.243V571.47H264.102ZM251.867 575.653C251.867 573.57 253.593 572.125 255.917 572.134C258.233 572.125 259.96 573.57 259.952 575.653C259.96 577.704 258.233 579.148 255.917 579.14C253.593 579.148 251.867 577.704 251.867 575.653ZM253.676 575.653C253.668 576.857 254.606 577.621 255.917 577.629C257.204 577.621 258.142 576.857 258.142 575.653C258.142 574.45 257.204 573.669 255.917 573.678C254.606 573.669 253.668 574.45 253.676 575.653ZM254.174 586.295V580.219H256V581.763H262.259V580.219H264.102V586.295H254.174ZM256 584.801H262.259V583.207H256V584.801ZM278.811 571.47V586.478H276.985V571.47H278.811ZM267.157 582.709V572.931H268.983V581.132C271.083 581.099 273.324 580.916 275.64 580.451L275.873 581.995C273.233 582.543 270.784 582.717 268.452 582.709H267.157ZM292.74 571.47V577.164H295.047V578.675H292.74V586.494H290.897V571.47H292.74ZM281.6 582.825V572.897H288.623V574.392H283.443V581.281C285.775 581.273 287.626 581.157 289.685 580.8L289.901 582.36C287.568 582.759 285.551 582.825 282.845 582.825H281.6ZM297.504 585.133C296.791 585.133 296.201 584.552 296.209 583.838C296.201 583.141 296.791 582.568 297.504 582.56C298.193 582.568 298.783 583.141 298.783 583.838C298.783 584.552 298.193 585.133 297.504 585.133Z" fill="#858585"/>
</g>
<defs>
<filter id="filter0_d_1_2528" x="0" y="-75" width="440" height="691" filterUnits="userSpaceOnUse" color-interpolation-filters="sRGB">
<feFlood flood-opacity="0" result="BackgroundImageFix"/>
<feColorMatrix in="SourceAlpha" type="matrix" values="0 0 0 0 0 0 0 0 0 0 0 0 0 0 0 0 0 0 127 0" result="hardAlpha"/>
<feOffset dy="4"/>
<feGaussianBlur stdDeviation="8"/>
<feColorMatrix type="matrix" values="0 0 0 0 0 0 0 0 0 0 0 0 0 0 0 0 0 0 0.15 0"/>
<feBlend mode="normal" in2="BackgroundImageFix" result="effect1_dropShadow_1_2528"/>
<feBlend mode="normal" in="SourceGraphic" in2="effect1_dropShadow_1_2528" result="shape"/>
</filter>
</defs>
</svg>
